<svg xmlns="http://www.w3.org/2000/svg" width="8" height="8" viewBox="0 0 8 8" fill="none">
  <g clip-path="url(#clip0_0_163)">
    <path d="M3.97528 2.14372C3.04962 2.14372 2.30298 2.88651 2.30298 3.80741C2.30298 4.7283 3.04962 5.47109 3.97528 5.47109C4.90094 5.47109 5.64758 4.7283 5.64758 3.80741C5.64758 2.88651 4.90094 2.14372 3.97528 2.14372ZM3.97528 4.88902C3.37709 4.88902 2.88806 4.40396 2.88806 3.80741C2.88806 3.21085 3.37564 2.72579 3.97528 2.72579C4.57492 2.72579 5.0625 3.21085 5.0625 3.80741C5.0625 4.40396 4.57347 4.88902 3.97528 4.88902ZM6.10605 2.07567C6.10605 2.29141 5.9314 2.46372 5.71599 2.46372C5.49913 2.46372 5.32593 2.28996 5.32593 2.07567C5.32593 1.86137 5.50058 1.68762 5.71599 1.68762C5.9314 1.68762 6.10605 1.86137 6.10605 2.07567ZM7.21364 2.46951C7.1889 1.9497 7.06955 1.48925 6.68677 1.10989C6.30544 0.730527 5.84261 0.611795 5.32011 0.585732C4.7816 0.555326 3.16751 0.555326 2.62899 0.585732C2.10795 0.610347 1.64512 0.729079 1.26233 1.10844C0.879552 1.4878 0.761661 1.94825 0.735463 2.46806C0.704899 3.0038 0.704899 4.60957 0.735463 5.14531C0.760205 5.66512 0.879552 6.12556 1.26233 6.50493C1.64512 6.88429 2.10649 7.00302 2.62899 7.02908C3.16751 7.05949 4.7816 7.05949 5.32011 7.02908C5.84261 7.00447 6.30544 6.88574 6.68677 6.50493C7.0681 6.12556 7.18744 5.66512 7.21364 5.14531C7.24421 4.60957 7.24421 3.00525 7.21364 2.46951ZM6.51794 5.72014C6.40441 6.00394 6.18464 6.22258 5.89792 6.33696C5.46856 6.50637 4.44975 6.46728 3.97528 6.46728C3.50081 6.46728 2.48054 6.50493 2.05264 6.33696C1.76737 6.22402 1.5476 6.00538 1.43262 5.72014C1.26233 5.293 1.30163 4.27944 1.30163 3.80741C1.30163 3.33538 1.26379 2.32037 1.43262 1.89467C1.54614 1.61088 1.76592 1.39224 2.05264 1.27785C2.48199 1.10844 3.50081 1.14753 3.97528 1.14753C4.44975 1.14753 5.47002 1.10989 5.89792 1.27785C6.18319 1.39079 6.40296 1.60943 6.51794 1.89467C6.68823 2.32182 6.64893 3.33538 6.64893 3.80741C6.64893 4.27944 6.68823 5.29444 6.51794 5.72014Z" fill="white"/>
  </g>
  <defs>
    <clipPath id="clip0_0_163">
      <rect width="6.58976" height="7.41348" fill="white" transform="translate(0.731049 0.101929)"/>
    </clipPath>
  </defs>
</svg>