<svg xmlns="http://www.w3.org/2000/svg" width="8" height="7" viewBox="0 0 8 7" fill="none">
  <g clip-path="url(#clip0_0_158)">
    <path d="M2.42491 6.69157V2.52335H1.02698V6.69157H2.42491ZM1.72613 1.95391C2.21361 1.95391 2.51705 1.63384 2.51705 1.23386C2.50796 0.824859 2.21363 0.513672 1.73538 0.513672C1.2572 0.513672 0.944504 0.824865 0.944504 1.23386C0.944504 1.63386 1.24786 1.95391 1.717 1.95391H1.72608H1.72613ZM3.19866 6.69157H4.5966V4.36384C4.5966 4.23926 4.60568 4.11481 4.64259 4.02576C4.74365 3.77686 4.97367 3.51906 5.35984 3.51906C5.86569 3.51906 6.06806 3.9013 6.06806 4.46164V6.69154H7.4659V4.30153C7.4659 3.02121 6.77624 2.4255 5.85648 2.4255C5.10236 2.4255 4.77124 2.84326 4.58729 3.12779H4.59663V2.52327H3.19869C3.21704 2.91439 3.19869 6.69149 3.19869 6.69149L3.19866 6.69157Z" fill="white"/>
  </g>
  <defs>
    <clipPath id="clip0_0_158">
      <rect width="6.58976" height="6.1779" fill="white" transform="translate(0.961761 0.513916)"/>
    </clipPath>
  </defs>
</svg>